<svg id="Layer_4" data-name="Layer 4" xmlns="http://www.w3.org/2000/svg" viewBox="0 0 892.77 130.24"><defs><style>.cls-1{fill:#021433;}.cls-2{fill:#ff9cb7;}.cls-3{fill:#ff9cb8;}.cls-4{fill:#fff;}</style></defs><rect class="cls-1" x="192.45" y="38.73" width="161.8" height="63.43" rx="3"/><path class="cls-2" d="M354.78,145.51h-4.41v-9H342.1v9h-4.43V124.64h4.43v8.18h8.27v-8.18h4.41Z" transform="translate(-106.51 -64.16)"/><path class="cls-2" d="M379,135.05c0,3.45-.86,6.11-2.57,8s-4.18,2.79-7.37,2.79-5.65-.93-7.37-2.79-2.57-4.52-2.57-8,.86-6.13,2.58-8,4.18-2.75,7.38-2.75,5.67.92,7.37,2.77S379,131.58,379,135.05Zm-15.24,0a8.66,8.66,0,0,0,1.33,5.26,4.61,4.61,0,0,0,4,1.78q5.29,0,5.29-7T369.08,128a4.67,4.67,0,0,0-4,1.78A8.72,8.72,0,0,0,363.76,135.05Z" transform="translate(-106.51 -64.16)"/><path class="cls-2" d="M392.16,145.51l-5-16.38H387q.27,5,.27,6.67v9.71h-4V124.64h6l4.94,16h.09l5.24-16h6v20.87h-4.12v-9.88c0-.46,0-1,0-1.61s.08-2.23.19-4.86h-.13l-5.38,16.35Z" transform="translate(-106.51 -64.16)"/><path class="cls-2" d="M422.92,145.51h-12V124.64h12v3.62h-7.6v4.59h7.07v3.62h-7.07v5.39h7.6Z" transform="translate(-106.51 -64.16)"/><rect class="cls-3" x="750.92" y="38.08" width="139.98" height="64.72" rx="3"/><path class="cls-4" d="M982.45,168.84H872.39A16.85,16.85,0,0,1,855.56,152v-34.8a16.85,16.85,0,0,1,16.83-16.83H982.45a16.85,16.85,0,0,1,16.83,16.83V152A16.85,16.85,0,0,1,982.45,168.84ZM872.39,104.12a13.11,13.11,0,0,0-13.09,13.09V152a13.11,13.11,0,0,0,13.09,13.09H982.45A13.11,13.11,0,0,0,995.54,152v-34.8a13.11,13.11,0,0,0-13.09-13.09Z" transform="translate(-106.51 -64.16)"/><path class="cls-4" d="M897.23,145.73h-2.48v-19.1H888v-2.2h16v2.2h-6.74Z" transform="translate(-106.51 -64.16)"/><path class="cls-4" d="M919.06,145.73H907.18v-21.3h11.88v2.2h-9.4v6.87h8.83v2.18h-8.83v7.84h9.4Z" transform="translate(-106.51 -64.16)"/><path class="cls-4" d="M937.17,145.73,934.51,139H926l-2.62,6.77h-2.51l8.42-21.38h2.08l8.38,21.38Zm-3.43-9-2.48-6.6c-.32-.83-.65-1.86-1-3.07a31.54,31.54,0,0,1-.92,3.07l-2.51,6.6Z" transform="translate(-106.51 -64.16)"/><path class="cls-4" d="M952.08,145.73l-7.22-18.88h-.12c.14,1.5.2,3.28.2,5.33v13.55h-2.29v-21.3h3.73L953.13,142h.12l6.8-17.57h3.71v21.3h-2.48V132c0-1.57.06-3.28.2-5.13h-.12l-7.28,18.85Z" transform="translate(-106.51 -64.16)"/><path class="cls-3" d="M219.79,159.16l0-59.55-109.75-.23.05,59.78c-.11,1.62.74,3.19,2.73,4.34l44.6,25.75c4.14,2.39,11.38,2.09,16.17-.67l42.28-24.41C218.39,162.73,219.66,160.92,219.79,159.16Z" transform="translate(-106.51 -64.16)"/><path class="cls-4" d="M164.49,194.38a17.91,17.91,0,0,1-8.82-2.07l-44.59-25.75c-3.07-1.77-4.71-4.56-4.49-7.65l-.06-59.52a3.54,3.54,0,0,1,1-2.51c.66-.66,1.36-1.35,2.51-1l109.75.22a3.54,3.54,0,0,1,3.53,3.54l0,59.55c0,.09,0,.17,0,.25-.22,3.08-2.23,5.85-5.66,7.83l-42.26,24.4A22.29,22.29,0,0,1,164.49,194.38Zm-50.87-91.44,0,56.22c0,.68.79,1.18,1,1.27l44.59,25.75c3.06,1.76,9,1.45,12.65-.67l42.26-24.41c1.54-.88,2-1.74,2.13-2.12l0-55.84Z" transform="translate(-106.51 -64.16)"/><path class="cls-3" d="M165,190.86a18.68,18.68,0,0,0,8.67-2.24l42.27-24.41c2.49-1.44,3.76-3.25,3.89-5l0-59.55L165,99.54Z" transform="translate(-106.51 -64.16)"/><path class="cls-4" d="M164.94,194.4a3.53,3.53,0,0,1-3.54-3.54V99.54A3.53,3.53,0,0,1,164.94,96h0l54.87.11a3.54,3.54,0,0,1,3.53,3.54l0,59.56c-.23,3.32-2.24,6.1-5.66,8.07l-42.27,24.4A22.1,22.1,0,0,1,165,194.4Zm3.55-91.31v83.76a12.64,12.64,0,0,0,3.36-1.3l42.27-24.41c1.62-.93,2.1-1.82,2.13-2.19l0-55.77Z" transform="translate(-106.51 -64.16)"/><path class="cls-3" d="M157.45,129.47l-44.6-25.75c-4.15-2.39-3.63-6.58,1.16-9.34L156.28,70c4.79-2.76,12-3.06,16.18-.67l44.6,25.75c4.15,2.39,3.62,6.58-1.16,9.34L173.62,128.8C168.83,131.56,161.59,131.86,157.45,129.47Z" transform="translate(-106.51 -64.16)"/><path class="cls-4" d="M164.49,134.61a17.92,17.92,0,0,1-8.82-2.08l-44.59-25.75c-2.91-1.67-4.57-4.26-4.57-7.11,0-3.21,2.09-6.25,5.73-8.36l42.27-24.4c5.85-3.39,14.51-3.68,19.72-.67L218.83,92c2.9,1.67,4.57,4.27,4.57,7.12,0,3.2-2.09,6.25-5.73,8.35l-42.27,24.4A22.32,22.32,0,0,1,164.49,134.61Zm1-63.39A15.51,15.51,0,0,0,158.05,73L115.78,97.45c-1.79,1-2.19,2-2.19,2.21s.28.56,1,1l44.59,25.75h0c3.06,1.76,9,1.45,12.65-.67l42.26-24.4c1.79-1,2.2-2,2.2-2.22s-.28-.56-1-1l-44.6-25.75A10.71,10.71,0,0,0,165.48,71.22Z" transform="translate(-106.51 -64.16)"/></svg>