<svg id="content" xmlns="http://www.w3.org/2000/svg" viewBox="0 0 112.42 111.75"><defs><style>.cls-1{fill:#fff;}</style></defs><g id="down"><path class="cls-1" d="M602.3,1839.15H544.83a27.51,27.51,0,0,1-27.48-27.48v-56.8a27.51,27.51,0,0,1,27.48-27.47H602.3a27.5,27.5,0,0,1,27.47,27.47v56.8A27.51,27.51,0,0,1,602.3,1839.15ZM544.83,1733.5a21.4,21.4,0,0,0-21.37,21.37v56.8A21.4,21.4,0,0,0,544.83,1833H602.3a21.4,21.4,0,0,0,21.37-21.37v-56.8a21.4,21.4,0,0,0-21.37-21.37Z" transform="translate(-517.35 -1727.4)"/><path class="cls-1" d="M573.56,1802a3.08,3.08,0,0,1-2.16-.89l-25.14-25.15a3.05,3.05,0,0,1,4.32-4.32l23,23,23-23a3.05,3.05,0,0,1,4.31,4.32l-25.14,25.15A3.08,3.08,0,0,1,573.56,1802Z" transform="translate(-517.35 -1727.4)"/></g></svg>